<?xml version="1.0" encoding="UTF-8" standalone="no"?>
<svg
   width="1920"
   height="926"
   viewBox="0 0 1920 926"
   fill="none"
   version="1.1"
   id="svg1142"
   sodipodi:docname="Footer.svg"
   inkscape:version="1.2.2 (b0a8486541, 2022-12-01)"
   xmlns:inkscape="http://www.inkscape.org/namespaces/inkscape"
   xmlns:sodipodi="http://sodipodi.sourceforge.net/DTD/sodipodi-0.dtd"
   xmlns="http://www.w3.org/2000/svg"
   xmlns:svg="http://www.w3.org/2000/svg">
  <defs
     id="defs1146" />
  <sodipodi:namedview
     id="namedview1144"
     pagecolor="#ffffff"
     bordercolor="#999999"
     borderopacity="1"
     inkscape:showpageshadow="0"
     inkscape:pageopacity="0"
     inkscape:pagecheckerboard="0"
     inkscape:deskcolor="#d1d1d1"
     showgrid="false"
     inkscape:zoom="0.72085184"
     inkscape:cx="717.20702"
     inkscape:cy="-180.34219"
     inkscape:window-width="3840"
     inkscape:window-height="2135"
     inkscape:window-x="0"
     inkscape:window-y="0"
     inkscape:window-maximized="0"
     inkscape:current-layer="svg1142" />
  <path
     d="M 1920,264.147 V 985.165 H -17.9813 C -17.9813,915.132 -20,508.804 -20,438.771 c 1.1859,-1.289 4.6615,3.256 6.4573,3.154 6.15977,-8.783 27.7992,-4.129 41.4875,-5.35 17.8558,-1.594 37.1596,-6.056 55.0105,-6.056 14.1626,-1.662 27.2217,-3.318 41.3837,-5.047 19.652,-2.408 39.464,-4.552 59.048,-7.57 27.173,-4.24 54.216,-8.506 81.254,-13.627 48.146,-9.123 95.556,-19.36 143.33,-30.281 44.995,-10.31 89.46,-19.635 134.185,-31.031 36.287,-9.258 72.405,-19.093 108.591,-28.657 2.745,-0.712 5.253,-1.401 8.2,-2.238 24.7,-7.021 49.637,-13.329 74.337,-20.349 3.93,-1.119 6.471,-3.086 8.098,-6.749 2.642,-6.003 6.302,-11.497 9.215,-17.364 1.051,-2.103 2.54033,-3.49211 5.25033,-3.39111 3.05,0.102 3.35567,1.93311 4.20367,4.23911 1.219,3.323 2.405,6.647 3.354,10.039 1.05,3.73 3.117,4.544 6.81,3.527 17.483,-4.884 35,-9.598 52.517,-14.244 44.318,-11.769 88.635,-23.503 133.19,-34.322 50.418,-12.243 101.038,-23.672 151.958,-33.507 34.77,-6.715 69.7,-12.582 104.77,-17.466 23.1,-3.222 46.24,-5.969 69.49,-8.037 128.323,-10.19172 139.1879,-10.10758 232.19,1.017 0.92,-0.577 2,-0.611 2.98,-0.984 1.63,-0.305 3.22,-0.169 4.81,0.102 1.26,0.238 2.51,0.475 3.8,0.509 1.76,0.203 3.56,0.169 5.28,0.543 1.19,0.237 2.41,0.474 3.63,0.508 1.22,0.102 2.44,0.136 3.66,0.305 0.71,0.068 1.39,0.374 2.1,0.475 1.35,0.339 2.74,0.543 4.13,0.475 1.43,-0.034 2.85,0.068 4.27,0.305 0.48,0.102 0.92,0.238 1.36,0.407 1.56,0.78 3.22,0.746 4.88,0.746 1.25,0 2.5,0 3.76,0.034 1.56,0.136 3.15,0.373 4.71,0.339 11.65,1.527 23.31,3.087 34.96,4.308 2.04,0.746 4.14,1.254 6.31,1.356 2.27,0.678 4.6,0.441 6.91,0.712 0.47,0.102 0.98,0.272 1.45,0.441 1.6,0.712 3.26,1.018 5.02,0.679 0.74,-0.034 1.49,0.033 2.2,0.169 1.86,0.373 3.66,1.255 5.63,0.984 0.47,-0.034 0.98,-0.034 1.45,0.067 1.63,0.306 3.15,0.984 4.88,0.78 0.75,-0.034 1.46,0.068 2.17,0.204 1.59,0.339 3.15,1.017 4.85,0.814 0.71,-0.034 1.42,0.034 2.13,0.203 1.35,0.305 2.68,0.78 4.1,0.746 0.71,0 1.42,0.102 2.1,0.272 1.59,0.373 3.12,0.983 4.81,0.78 0.71,-0.034 1.42,0.034 2.14,0.203 1.59,0.305 3.08,1.085 4.77,0.95 0.48,-0.034 0.95,0 1.39,0.102 1.56,0.305 3.05,1.085 4.71,0.915 0.48,-0.034 0.92,0.034 1.39,0.102 1.32,0.305 2.64,0.712 4.03,0.644 0.95,0 1.87,0.136 2.78,0.306 1.32,0.305 2.64,0.78 4.03,0.78 0.71,0 1.39,0.101 2.07,0.271 1.32,0.271 2.54,0.882 3.9,0.916 0.44,0 0.84,0.068 1.28,0.135 0.95,0.204 1.87,0.543 2.85,0.305 0.3,-0.135 0.61,-0.271 0.91,-0.44 0.24,-0.238 0.48,-0.441 0.72,-0.679 0.17,-0.271 0.34,-0.542 0.5,-0.814 0.21,-0.474 0.38,-0.915 0.55,-1.39 0.1,-0.339 0.23,-0.644 0.37,-0.95 0.2,-0.474 0.44,-0.949 0.64,-1.39 0.14,-0.305 0.27,-0.611 0.44,-0.916 0.21,-0.475 0.48,-0.882 0.65,-1.356 0.1,-0.34 0.23,-0.645 0.37,-0.916 0.17,-0.475 0.34,-0.95 0.51,-1.424 0.1,-0.34 0.24,-0.645 0.37,-0.95 0.17,-0.475 0.41,-0.916 0.64,-1.391 0.14,-0.305 0.28,-0.61 0.45,-0.915 0.2,-0.441 0.5,-0.882 0.71,-1.323 0.1,-0.305 0.27,-0.61 0.44,-0.882 0.2,-0.44 0.44,-0.881 0.61,-1.356 0.1,-0.339 0.23,-0.645 0.37,-0.95 0.17,-0.475 0.34,-0.983 0.51,-1.458 0.1,-0.339 0.2,-0.678 0.34,-1.018 0.2,-0.508 0.44,-0.983 0.61,-1.458 0.1,-0.339 0.23,-0.678 0.4,-1.017 0.21,-0.543 0.41,-1.052 0.61,-1.594 0.1,-0.407 0.27,-0.746 0.44,-1.119 0.27,-0.611 0.61,-1.12 0.99,-1.662 0.3,-0.373 0.64,-0.645 1.01,-0.916 0.92,-0.441 1.8,-0.576 2.71,0.034 2.78,2.442 2.27,6.104 3.49,9.157 0.17,0.407 0.31,0.848 0.38,1.322 0.1,1.086 0.37,2.137 0.71,3.188 0.13,0.441 0.2,0.848 0.27,1.289 0.64,1.865 0.91,3.832 1.66,5.698 0.17,0.407 0.3,0.814 0.37,1.221 0.1,1.017 0.37,2.001 0.75,2.984 0.17,0.373 0.27,0.746 0.37,1.153 0.2,0.746 0.44,1.526 0.64,2.272 0.21,0.577 0.34,1.187 0.44,1.764 0.11,0.339 0.21,0.712 0.27,1.017 0,-0.067 0.14,0.374 0.17,0.306 0,-0.068 0.24,0.169 0.24,0.135 0,-0.034 0.2,-0.169 0.2,-0.237 0.07,-0.271 0.14,-0.475 0.24,-0.746 0.07,-0.339 0.17,-0.611 0.27,-0.882 0.17,-0.509 0.31,-0.983 0.48,-1.492 0.06,-0.373 0.2,-0.712 0.34,-1.052 0.23,-0.678 0.5,-1.39 0.71,-2.102 0.07,-0.373 0.2,-0.712 0.34,-1.085 0.23,-0.713 0.47,-1.425 0.67,-2.171 0.07,-0.407 0.21,-0.78 0.34,-1.153 0.31,-0.78 0.65,-1.526 0.88,-2.306 0.17,-0.407 0.41,-0.78 0.68,-1.153 1.73,-1.866 3.19,-1.391 4.51,0.475 0.23,0.373 0.4,0.813 0.51,1.22 0.06,1.086 0.3,2.103 0.84,3.053 0.14,0.407 0.21,0.814 0.27,1.221 0.14,1.017 0.51,1.933 0.82,2.916 0.13,0.373 0.23,0.78 0.27,1.187 0.1,0.78 0.37,1.56 0.61,2.306 0.17,0.373 0.24,0.78 0.3,1.187 0.14,0.78 0.51,1.526 0.75,2.273 0.13,0.373 0.24,0.746 0.34,1.119 0.17,0.509 0.34,1.017 0.64,1.492 0.27,0.237 0.51,0.475 0.75,0.712 0.47,0.271 0.94,0.475 1.49,0.611 0.4,0.068 0.74,0.169 1.12,0.271 0.94,0.305 1.89,0.543 2.91,0.61 0.64,0.034 1.25,0.17 1.86,0.306 1.22,0.271 2.37,0.848 3.66,0.848 0.44,0 0.85,0.067 1.26,0.169 1.01,0.237 1.96,0.678 3.01,0.814 0.41,0.034 0.81,0.136 1.22,0.237 0.98,0.272 1.97,0.611 2.98,0.679 0.65,0.034 1.26,0.169 1.87,0.339 1.01,0.237 1.96,0.678 3.01,0.78 0.44,0.034 0.85,0.136 1.25,0.237 0.99,0.272 1.94,0.78 2.99,0.882 0.4,0.034 0.81,0.102 1.22,0.203 0.95,0.272 1.89,0.611 2.91,0.645 0.61,0.034 1.22,0.17 1.8,0.305 0.98,0.238 1.89,0.678 2.91,0.746 0.41,0.034 0.81,0.136 1.19,0.238 0.94,0.271 1.86,0.712 2.88,0.78 0.4,0.034 0.81,0.135 1.18,0.237 0.95,0.238 1.86,0.712 2.88,0.78 0.41,0.034 0.81,0.136 1.19,0.238 0.95,0.271 1.86,0.712 2.91,0.78 0.41,0.033 0.81,0.135 1.22,0.237 1.02,0.305 2,0.644 3.05,0.746 0.47,0.034 0.88,0.136 1.32,0.237 1.15,0.34 2.31,0.543 3.49,0.713 36.26,9.258 71.7,21.06 106.76,34.016 6.14,2.272 12.23,4.578 18.44,6.681 2.23,0.848 4.43,1.865 5.62,4.375 z"
     fill="#124838"
     id="path966"
     sodipodi:nodetypes="cccccccccccccccccccccccccccccccccccccsccccccccccccccccccccccccsccccccccccccccccccccccccccccccccccccccccccscccccccccccccccccccccccccccsccccccccccccccccccccccccc" />
  <path
     d="m 674,307.823 c -8.436,3.392 -17.945,5.023 -26.686,7.397 -30.659,8.243 -61.353,16.384 -92.08,24.321 -24.9,6.445 -49.8,12.72 -74.802,18.723 -38.858,9.328 -77.749,18.385 -116.878,26.594 -23.816,5.02 -47.666,9.871 -71.55,14.484 -26.018,5.054 -52.104,9.565 -78.291,13.669 -20.022,3.155 -40.078,6.242 -60.133,9.057 -15.754,2.205 -31.541,4.138 -47.362,6.038 -11.9584,1.458 -23.985,2.578 -35.9438,4.07 -12.2976,1.526 -24.663,2.374 -36.9945,3.629 -6.1319,0.645 -12.3315,1.154 -18.5311,1.459 -6.19968,0.271 -12.36543,0.916 -18.59894,0.814 V 221.839 c 0.77919,-0.78 1.28735,-1.832 2.4392,-2.239 1.3889857,-0.237 2.81185,-0.475 4.16696,-0.848 7.89348,-0.135 15.71928,-1.425 23.64668,-1.425 2.6763,-0.067 5.3527,0.102 8.029,-0.237 3.2862,-0.305 6.6739,0.305 9.8923,-0.746 22.0883,-1.255 44.2444,-1.289 66.3322,-2.069 24.325,-0.848 48.581,0.61 72.838,0.61 39.07616,-1.07203 39.93464,-1.07029 88.251,5.122 2.575,0.611 5.15,1.493 7.86,0.746 1.355,-0.101 2.71,0 4.065,0.272 2.033,0.475 4.032,1.119 6.166,0.746 1.355,-0.068 2.676,0.034 3.998,0.305 1.998,0.475 3.997,1.086 6.131,0.713 1.355,-0.068 2.677,0.033 3.998,0.305 2.27,0.509 4.506,1.391 6.911,0.814 1.084,-0.102 2.134,0 3.185,0.203 1.964,0.475 3.929,1.12 6.03,0.747 1.321,-0.102 2.608,0.034 3.896,0.271 1.49,0.339 2.981,0.679 4.505,0.611 1.322,0.034 2.643,0.135 3.964,0.373 2.101,0.576 4.235,0.882 6.437,0.576 13.449,1.628 26.797,3.799 40.247,5.36 2.134,0.237 4.268,0.882 5.996,2.34 2.17626,0.35838 -0.97984,-0.98878 6.979,-0.136 1.287,0.136 2.541,0.475 3.828,0.645 0.983,0.102 1.931,0.271 2.88,0.475 1.355,0.305 2.676,0.78 4.099,0.78 0.711,0 1.389,0.102 2.066,0.271 1.322,0.306 2.609,0.781 3.998,0.781 0.678,0 1.355,0.101 2.033,0.237 1.084,0.237 2.202,0.509 3.32,0.577 0.914,0.068 1.829,0.203 2.71,0.407 1.321,0.305 2.609,0.78 3.998,0.78 0.677,0 1.355,0.102 2.032,0.237 1.084,0.238 2.168,0.509 3.32,0.611 0.915,0.068 1.796,0.203 2.677,0.407 1.084,0.237 2.168,0.509 3.286,0.61 0.914,0.068 1.795,0.238 2.676,0.441 1.084,0.272 2.134,0.645 3.218,0.781 0.441,0.034 0.881,0.135 1.322,0.237 1.253,0.373 2.507,0.746 3.828,0.644 0.914,0 1.795,0.102 2.676,0.272 0.881,0.169 1.762,0.339 2.609,0.509 0.881,0.135 1.727,0.339 2.608,0.542 1.051,0.272 2.101,0.577 3.185,0.679 0.643,0.068 1.287,0.169 1.931,0.339 1.05,0.271 2.066,0.576 3.15,0.678 0.644,0.068 1.288,0.17 1.932,0.34 1.05,0.271 2.066,0.576 3.116,0.678 0.644,0.068 1.288,0.17 1.931,0.339 1.05,0.272 2.067,0.577 3.117,0.679 0.644,0.034 1.287,0.169 1.931,0.339 1.016,0.271 2.067,0.576 3.117,0.678 0.644,0.068 1.287,0.17 1.897,0.339 1.016,0.272 2.033,0.577 3.083,0.679 0.644,0.034 1.253,0.169 1.897,0.305 0.813,0.169 1.66,0.373 2.473,0.509 0.847,0.135 1.66,0.305 2.507,0.509 0.813,0.169 1.626,0.407 2.473,0.576 0.644,0.102 1.254,0.272 1.863,0.441 0.983,0.305 1.999,0.577 3.049,0.679 0.644,0.034 1.254,0.169 1.864,0.339 1.016,0.271 1.998,0.576 3.049,0.678 0.643,0.068 1.253,0.17 1.863,0.339 0.813,0.17 1.592,0.407 2.405,0.611 0.61,0.102 1.186,0.271 1.762,0.441 0.779,0.203 1.524,0.441 2.304,0.61 0.576,0.102 1.151,0.272 1.694,0.441 0.745,0.204 1.49,0.373 2.269,0.475 0.407,0.034 0.779,0.136 1.152,0.272 0.576,0.101 1.186,0.169 1.762,0.305 0.745,0.237 1.524,0.407 2.304,0.543 0.575,0.101 1.151,0.237 1.727,0.407 0.779,0.203 1.525,0.407 2.304,0.576 0.576,0.102 1.152,0.272 1.728,0.407 0.779,0.204 1.524,0.407 2.303,0.577 0.61,0.102 1.186,0.271 1.728,0.441 0.949,0.271 1.863,0.712 2.846,0.78 0.406,0.034 0.779,0.102 1.186,0.238 0.779,0.203 1.524,0.407 2.303,0.576 0.576,0.102 1.152,0.272 1.728,0.407 0.779,0.204 1.525,0.407 2.304,0.577 0.576,0.102 1.152,0.271 1.728,0.407 0.779,0.203 1.524,0.407 2.303,0.577 0.576,0.101 1.152,0.271 1.728,0.407 0.779,0.203 1.525,0.407 2.304,0.576 0.576,0.102 1.151,0.272 1.727,0.441 0.78,0.204 1.525,0.407 2.304,0.577 0.576,0.101 1.152,0.271 1.728,0.441 0.745,0.203 1.524,0.407 2.27,0.61 0.576,0.102 1.152,0.272 1.727,0.441 0.746,0.238 1.491,0.475 2.236,0.713 0.373,0.067 0.746,0.203 1.118,0.339 0.915,0.305 1.762,0.746 2.744,0.78 0.407,0.034 0.78,0.102 1.152,0.237 0.746,0.204 1.491,0.407 2.236,0.577 0.576,0.102 1.152,0.237 1.694,0.407 0.745,0.204 1.491,0.407 2.27,0.577 0.576,0.101 1.152,0.271 1.694,0.441 0.745,0.237 1.457,0.509 2.202,0.712 0.373,0.068 0.745,0.203 1.118,0.305 0.711,0.238 1.457,0.441 2.202,0.611 0.576,0.101 1.152,0.271 1.728,0.441 0.779,0.203 1.558,0.441 2.371,0.644 0.441,0.102 0.847,0.238 1.254,0.407 0.847,0.475 1.761,0.611 2.676,0.713 18.294,4.477 36.147,10.311 53.933,16.417 9.994,3.426 20.124,6.58 29.914,10.549 2.575,1.289 6.258,1.795 7.105,5.153 z"
     fill="#347a65"
     id="path968"
     sodipodi:nodetypes="ccccccccccccccccccccccccccccccccccccccccscscccscccccccccccccccccccccccccccccccccccccccccccccccccccccccccccccccccccccccccccc" />
  <path
     d="M1582.87 263.858C1582.9 265.547 1582.63 267.135 1581.95 268.723C1575.02 285.38 1568.12 302.037 1561.29 318.695C1556.23 331.027 1550.93 343.292 1546 355.692C1542.43 364.679 1538.25 373.43 1534.79 382.451C1533.94 384.715 1532.31 386.404 1530.24 387.62C1529.56 387.283 1528.88 386.945 1528.2 386.607C1527.89 386.235 1527.52 385.931 1527.18 385.593C1526.84 385.255 1526.46 384.951 1526.16 384.58C1523.07 382.282 1520.35 379.613 1518.07 376.538C1517.7 376.234 1517.39 375.863 1517.05 375.525C1516.71 375.187 1516.41 374.815 1516.03 374.511C1515.69 373.835 1515.35 373.16 1515.01 372.484C1514.64 372.18 1514.37 371.774 1513.99 371.47C1513.65 370.795 1513.31 370.119 1512.97 369.443C1512.6 369.139 1512.33 368.733 1511.95 368.429C1511.95 368.091 1511.95 367.754 1511.95 367.416C1511.58 367.112 1511.31 366.706 1510.94 366.402C1510.94 366.064 1510.94 365.726 1510.94 365.389C1510.29 364.882 1510.56 363.902 1509.92 363.361C1509.92 363.023 1509.92 362.686 1509.92 362.348C1509.27 361.841 1509.54 360.861 1508.9 360.321C1508.05 356.334 1507.64 352.313 1507.88 348.225C1508.52 347.718 1508.25 346.738 1508.9 346.197C1508.73 343.326 1510.53 341.332 1511.92 339.136C1512.29 338.832 1512.6 338.46 1512.94 338.122C1513.28 337.784 1513.62 337.447 1513.96 337.109C1514.3 336.771 1514.64 336.433 1514.98 336.095C1515.32 335.757 1515.66 335.419 1516 335.081C1516.34 334.743 1516.71 334.439 1517.02 334.068C1517.36 334.068 1517.7 334.068 1518.04 334.068C1518.34 333.696 1518.75 333.426 1519.06 333.054C1520.45 331.703 1518.99 330.385 1519.06 329.033C1518.68 328.729 1518.41 328.324 1518.04 328.02C1518.04 327.682 1518.04 327.344 1518.04 327.006C1517.66 326.702 1517.39 326.297 1517.02 325.992C1517.02 325.655 1517.02 325.317 1517.02 324.979C1516.64 324.675 1516.37 324.269 1516 323.965C1516 323.627 1516 323.29 1516 322.952C1515.62 322.648 1515.35 322.242 1514.98 321.938C1514.81 320.08 1513.69 318.559 1512.94 316.904C1512.57 316.6 1512.29 316.194 1511.92 315.89C1511.48 312.984 1509.2 312.376 1506.86 311.869C1506.55 311.498 1506.14 311.228 1505.84 310.856C1502.13 309.504 1498.43 308.187 1494.69 306.835C1494.39 306.463 1493.98 306.193 1493.67 305.822C1491.64 305.146 1489.63 304.47 1487.59 303.794C1487.29 303.423 1486.88 303.152 1486.57 302.781C1485.89 302.781 1485.21 302.781 1484.53 302.781C1484.23 302.409 1483.82 302.139 1483.51 301.767C1476.72 299.064 1469.89 296.327 1463.06 293.624C1462.14 293.253 1461.16 293.016 1460.2 292.712C1459.9 292.34 1459.49 292.07 1459.18 291.699C1457.83 291.361 1456.5 291.023 1455.14 290.685C1454.84 290.313 1454.43 290.043 1454.12 289.671C1452.76 289.333 1451.44 288.995 1450.08 288.658C1449.77 288.286 1449.36 288.016 1449.06 287.644C1447.7 287.306 1446.37 286.968 1445.02 286.63C1444.71 286.259 1444.3 285.988 1444 285.617C1443.66 285.617 1443.32 285.617 1442.98 285.617C1442.67 285.245 1442.26 284.975 1441.96 284.603C1439.92 283.927 1437.91 283.252 1435.88 282.576C1435.57 282.204 1435.16 281.934 1434.86 281.562C1433.84 281.224 1432.82 280.886 1431.83 280.549C1431.39 280.143 1431.36 279.704 1431.7 279.231C1434.62 276.697 1438.93 277.846 1441.92 275.514C1449.87 278.623 1457.96 281.529 1465.78 284.941C1479.5 290.854 1493.4 296.294 1507.23 301.97C1509.34 302.814 1510.97 302.578 1512.84 301.227C1516 298.963 1518.68 296.226 1521.5 293.591C1523.37 291.867 1523.61 290.516 1522.32 288.016C1518.85 281.292 1516.2 274.23 1516.85 266.425C1517.8 254.803 1525.61 244.802 1539.1 244.295C1539.61 243.653 1540.6 243.923 1541.14 243.281C1542.5 243.281 1543.83 243.281 1545.19 243.281C1545.49 243.653 1545.9 243.923 1546.21 244.295C1547.9 244.295 1549.57 244.295 1551.27 244.295C1551.57 244.666 1551.98 244.937 1552.29 245.308C1553.31 245.308 1554.33 245.308 1555.31 245.308C1555.62 245.68 1556.03 245.951 1556.33 246.322C1557.01 246.322 1557.69 246.322 1558.37 246.322C1558.68 246.694 1559.08 246.964 1559.39 247.336C1559.73 247.336 1560.07 247.336 1560.41 247.336C1560.71 247.707 1561.12 247.978 1561.43 248.349C1562.79 248.687 1564.11 249.025 1565.47 249.363C1565.78 249.735 1566.15 250.039 1566.49 250.377C1566.83 250.714 1567.2 251.019 1567.51 251.39C1567.85 251.39 1568.19 251.39 1568.53 251.39C1568.84 251.762 1569.24 252.032 1569.55 252.404C1569.89 252.404 1570.23 252.404 1570.57 252.404C1570.87 252.776 1571.25 253.08 1571.59 253.417C1571.93 253.755 1572.3 254.059 1572.61 254.431C1573.29 254.769 1573.97 255.107 1574.65 255.445C1574.95 255.816 1575.33 256.121 1575.67 256.458C1576.01 256.796 1576.35 257.134 1576.68 257.472C1577.02 257.81 1577.4 258.114 1577.7 258.486C1579.84 260.107 1581.54 261.797 1582.87 263.858Z"
     fill="#124838"
     id="path972" />
</svg>
